HIERARCHY
ROOT pelvis
{
  OFFSET 0 100 0
  CHANNELS 6 Xposition Yposition Zposition Zrotation Xrotation Yrotation
  JOINT pelvis_right_femur
  {
    OFFSET -10.78128 -3.44521 -0.5502486
    CHANNELS 3 Zrotation Xrotation Yrotation
    JOINT right_femur_tibia
    {
      OFFSET -0.8047443 -44.0398 -0.1307829
      CHANNELS 3 Zrotation Xrotation Yrotation
      JOINT right_tibia_foot
      {
        OFFSET 3.006224 -47.83518 -5
        CHANNELS 3 Zrotation Xrotation Yrotation
        End Site
        {
          OFFSET 0 -5 15
        }
      }
    }
  }
  JOINT pelvis_left_femur
  {
    OFFSET 10.78128 -3.44521 -0.5502486
    CHANNELS 3 Zrotation Xrotation Yrotation
    JOINT left_femur_tibia
    {
      OFFSET 0.8047443 -44.0398 -0.1307829
      CHANNELS 3 Zrotation Xrotation Yrotation
      JOINT left_tibia_foot
      {
        OFFSET -4.370144 -48.10324 -4.275266
        CHANNELS 3 Zrotation Xrotation Yrotation
        End Site
        {
          OFFSET 0 -5 15
        }
      }
    }
  }
  JOINT pelvis_spine1
  {
    OFFSET 0 6.468898 -3.129235
    CHANNELS 3 Zrotation Xrotation Yrotation
    JOINT spine1
    {
      OFFSET 0 23.15396 4.99043
      CHANNELS 3 Zrotation Xrotation Yrotation
      JOINT spine2
      {
        OFFSET 0 20.79997 -5.064912
        CHANNELS 3 Zrotation Xrotation Yrotation
        JOINT neck
        {
          OFFSET 0 14.38658 9.616178
          CHANNELS 3 Zrotation Xrotation Yrotation
          End Site
          {
            OFFSET 0 20 0
          }
        }
      }
      JOINT right_manubrium
      {
        OFFSET -5.722621 16.35077 3.967754
        CHANNELS 3 Zrotation Xrotation Yrotation
        JOINT right_clavicle
        {
          OFFSET -13.16364 1.694482 -4.693211
          CHANNELS 3 Zrotation Xrotation Yrotation
          JOINT right_humerus
          {
            OFFSET -28.5034 -0.3100689 -2.792744
            CHANNELS 3 Zrotation Xrotation Yrotation
            JOINT right_radius
            {
              OFFSET -25.15693 0.02248979 -1.271978
              CHANNELS 3 Zrotation Xrotation Yrotation
              End Site
              {
                OFFSET -15 0 0
              }
            }
          }
        }
      }
      JOINT left_manubrium
      {
        OFFSET 5.722621 16.35077 3.967754
        CHANNELS 3 Zrotation Xrotation Yrotation
        JOINT left_clavicle
        {
          OFFSET 13.16364 1.694482 -4.693211
          CHANNELS 3 Zrotation Xrotation Yrotation
          JOINT left_humerus
          {
            OFFSET 29.39168 -1.063119 -2.237045
            CHANNELS 3 Zrotation Xrotation Yrotation
            JOINT left_radius
            {
              OFFSET 24.59957 -0.9528479 0.9047498
              CHANNELS 3 Zrotation Xrotation Yrotation
              End Site
              {
                OFFSET 15 -0 -0
              }
            }
          }
        }
      }
    }
  }
}
MOTION
Frames: 21
Frame Time: 0.0416666666667
13.57678 100.895 274.3917 0.9115298 -7.138801 -6.992076 -2.563677 19.43364 5.264851 -0 32.00584 -0 9.623165 -8.878435 -1.601513 -0.645094 -22.6293 -5.875168 -0 25.006 -0 -8.353906 -7.524895 16.02401 -1.901636 -0.3812917 8.997496 -1.274622 9.798479 -2.704392 3.71424 21.38118 2.656154 -0.1026335 -13.23568 6.706203 3.50421 -20.80016 11.14147 77.96701 21.79077 0.1724858 -0 0 25.63031 -22.66857 10.56353 13.78721 2.082487 -13.39919 -3.668174 -90.94015 21.73552 23.39507 0 0 -9.80673 -4.276035 7.339674 18.57383
14.45968 101.5948 281.9204 1.812041 -8.362557 -5.192551 -2.591515 16.22591 5.005248 -0 42.65246 -0 10.61411 -5.2028 -3.888852 -3.131887 -18.14289 -6.936256 -0 26.08708 -0 -7.760926 -8.880707 15.35373 -2.685152 -0.3298711 8.338561 -1.329613 9.906147 -2.768712 3.812209 22.06963 2.517389 -0.220959 -12.74941 6.778924 3.810249 -19.42842 10.85491 78.99006 22.25818 -1.776058 -0 0 22.50939 -22.31049 10.71443 12.95497 2.061085 -13.40337 -3.637012 -90.01333 22.1899 21.96279 0 0 -10.12456 -4.201438 7.611833 18.53675
15.19552 102.6388 288.283 1.9837 -8.963526 -4.101834 -2.632642 12.23622 4.157741 -0 52.43012 -0 10.96918 -3.529163 -6.67328 -4.470894 -13.2241 -7.605242 -0 25.76013 -0 -7.113138 -10.56262 14.83362 -3.001785 0.2425225 7.38267 -1.23105 9.788957 -2.819571 3.814824 22.66744 2.509542 -0.3894301 -12.27584 6.933342 4.302554 -18.2408 10.98131 80.2106 22.93886 -3.811024 -0 0 19.13767 -21.68032 10.95394 11.9552 1.997134 -13.9834 -3.795038 -88.53171 22.66047 19.66872 0 0 -10.96662 -3.891793 7.976526 18.21327
15.77306 104.151 294.4179 1.878854 -10.21301 -2.912404 -1.610439 4.995312 3.326557 -0 58.00826 -0 10.5179 -4.533097 -7.930828 -5.060234 -7.427216 -7.905215 -0 24.53488 -0 -6.716351 -11.85732 14.34589 -3.126583 1.416948 5.996945 -0.9547257 9.898985 -3.170542 3.732872 23.32407 2.627221 -0.5984505 -11.73417 7.173742 4.709149 -17.05537 11.08827 81.74009 23.65433 -6.040254 -0 0 16.02045 -20.8324 11.21516 10.93155 2.029819 -14.71851 -4.091507 -86.83539 23.0564 16.87599 0 0 -12.16801 -3.415065 8.418107 17.67349
16.41413 105.7174 300.4264 1.840455 -10.62822 -1.389739 -0.1630045 -1.771739 2.823019 -0 59.40679 -0 9.547682 -5.241002 -8.664569 -5.365178 -2.036742 -8.118579 -0 22.41832 -0 -6.569408 -12.76846 13.7274 -3.144236 1.945869 4.424125 -0.6382822 9.704722 -3.922835 3.713199 23.92084 2.798174 -0.7618051 -11.14446 7.52163 4.502899 -15.86791 10.78825 83.5453 24.21928 -8.348421 -0 0 13.92013 -20.02788 11.40279 10.25479 2.404005 -15.35513 -4.351821 -85.22894 23.32868 13.84524 0 0 -13.85825 -2.800302 8.963816 16.86851
16.83434 106.7805 305.1682 1.506258 -10.32926 -0.7928068 0.09692093 -7.826446 2.048803 -0 55.37108 -0 8.159281 -5.833599 -8.766867 -4.941475 2.26572 -8.427574 -0 19.66692 -0 -6.492878 -13.77204 12.92365 -3.01845 2.401654 3.344419 -0.2532831 9.157942 -4.606581 3.714501 24.58317 2.921419 -0.8820568 -10.39534 7.808129 3.976897 -15.05849 10.20926 84.926 24.60512 -10.3212 -0 0 12.46077 -19.27816 11.46941 9.702472 3.05207 -16.17088 -4.393716 -83.56706 23.50943 10.57476 0 0 -16.01242 -2.089566 9.577811 15.75348
17.3147 107.222 310.4935 1.512451 -9.663496 0.3329902 0.05828646 -12.93688 1.667007 -0 47.98881 -0 6.616597 -6.112003 -9.036696 -4.777032 6.253903 -8.583622 -0 17.12057 -0 -6.421534 -14.95742 12.05488 -3.151258 2.34214 2.28463 0.1454191 8.49613 -5.600146 3.880146 24.9583 2.880609 -0.8869838 -9.834323 7.998408 3.125989 -13.94939 9.330215 86.11066 24.75523 -12.57166 -0 0 11.24154 -18.62006 11.40854 9.175003 3.896713 -16.89803 -4.402302 -81.99319 23.642 7.368667 0 0 -18.43101 -1.31495 10.28743 14.40751
17.6756 106.8593 315.9975 1.95043 -8.810232 1.775499 -0.4495312 -16.91519 1.604244 -0 38.92964 -0 5.034125 -6.171827 -9.512334 -4.905305 9.721963 -8.651429 -0 15.2662 -0 -6.286593 -16.37798 11.16616 -3.634498 1.934006 1.492783 0.4606399 7.956707 -6.505444 4.111238 25.17106 2.691646 -0.8113137 -9.386852 8.028351 2.212138 -12.6102 8.452283 87.08107 24.76131 -14.90286 -0 0 9.933276 -17.99812 11.28068 8.498789 4.87218 -17.53283 -4.27907 -80.68531 23.69975 4.357217 0 0 -20.93941 -0.4972368 11.02216 12.98807
17.91242 105.8443 321.2459 2.570269 -8.048253 2.918988 -1.329177 -21.17696 1.043584 -0 29.10085 -0 3.370504 -6.387945 -10.28612 -5.240525 12.80068 -8.430059 -0 14.20861 -0 -6.124859 -17.86749 10.3279 -4.269914 1.924849 1.181169 0.6970097 7.414633 -6.973047 4.340966 25.226 2.419367 -0.6903179 -9.050645 7.915711 1.548673 -11.46542 7.987961 87.77741 24.76596 -16.80723 -0 0 8.626176 -17.36859 11.16192 7.707503 5.887545 -18.317 -4.086725 -79.50258 23.6812 1.563729 0 0 -23.26275 0.382768 11.75092 11.57393
17.97615 104.569 326.6624 2.941466 -7.222631 3.529501 -1.814554 -23.59898 0.4925349 -0 20.50084 -0 1.506865 -7.327762 -10.47039 -5.470018 15.00167 -8.166316 -0 14.24112 -0 -6.016026 -19.17052 9.747731 -4.775491 2.210115 1.005883 0.9559592 6.988946 -7.191771 4.554983 25.33213 2.055422 -0.5287704 -8.770079 7.646688 1.288085 -10.53476 7.948525 88.16532 24.83152 -18.2023 -0 0 7.298662 -16.63522 11.10047 6.768661 6.690037 -19.22643 -3.85983 -78.49347 23.59169 -0.7548285 0 0 -24.99382 1.221092 12.45155 10.29527
18.01446 103.132 332.3326 3.137775 -6.790879 3.507724 -0.9975988 -25.33671 -0.5443444 -0 15.0244 -0 -0.1968458 -8.394773 -11.25491 -5.760946 17.25999 -7.762145 -0 16.05428 -0 -6.088983 -19.99697 9.481823 -4.976046 2.2833 1.240466 1.00523 6.250832 -6.75765 4.923195 25.05188 1.826113 -0.320973 -8.989885 7.667066 1.311271 -9.368634 8.622857 88.51489 24.91175 -19.15769 -0 0 6.199793 -15.76023 11.10489 5.798084 6.865334 -20.01196 -3.875533 -77.9342 23.55794 -2.238684 0 0 -25.56975 1.896141 13.08673 9.335965
17.78045 102.142 338.5645 2.72284 -6.558857 4.1731 -0.07391123 -25.2459 -0.2850047 -0 15.5066 -0 -1.603477 -8.435567 -12.02686 -4.826655 18.99512 -7.956053 -0 19.40369 -0 -6.414678 -19.69165 9.377467 -4.366208 2.187242 1.33857 1.285019 6.12504 -6.107479 5.122066 25.17658 1.549889 -0.1383714 -9.017784 7.465413 1.854732 -8.25649 9.625466 88.70608 25.00942 -19.59988 -0 0 5.487223 -14.74492 11.14887 4.834672 6.504043 -20.32261 -4.085053 -78.02966 23.72913 -3.021064 0 0 -25.01476 2.282815 13.67322 8.775667
17.50421 101.5722 345.5903 2.067393 -6.569214 5.150378 1.722777 -23.38944 1.156586 -0 19.25861 -0 -2.616963 -7.680126 -12.14033 -3.487257 20.06928 -8.368998 -0 24.7166 -0 -6.951354 -17.86879 9.757931 -3.495697 1.47139 0.7491277 1.418723 6.225744 -6.068138 5.227352 25.48248 1.281733 0.05345143 -8.86328 7.157306 2.101379 -7.26076 9.990439 88.75278 25.03495 -19.73893 -0 0 5.290699 -14.09828 11.08998 4.334725 6.143535 -19.90641 -4.058812 -78.79687 24.08818 -2.373713 0 0 -23.07878 2.343169 14.18727 8.725625
17.11607 101.8423 352.8914 0.8944919 -7.183545 5.611259 3.121837 -21.06712 2.867921 -0 23.65025 -0 -3.605043 -7.329574 -11.75337 -2.037932 19.9784 -8.766373 -0 32.44267 -0 -7.474407 -14.78445 10.91783 -2.239546 0.9858006 0.4903336 1.63318 6.550337 -5.975845 5.305947 26.00182 0.9597326 0.2727294 -8.614064 6.737388 2.406654 -6.685971 10.34016 88.47943 25.05472 -19.19296 -0 0 5.745342 -13.7073 10.96486 4.211332 5.552789 -19.08669 -3.988773 -80.28649 24.62829 -0.6386619 0 0 -20.06204 2.007842 14.63624 9.128945
16.77946 102.5249 359.984 0.5268527 -8.52439 4.433019 4.502963 -16.99305 3.54573 -0 26.3322 -0 -4.528047 -8.252446 -11.37969 -0.959077 16.95483 -8.860292 -0 41.3532 -0 -7.269273 -12.62938 13.11288 -1.722316 1.09981 1.003576 1.637675 7.013281 -5.441145 5.285157 26.32849 0.5842978 0.4807601 -8.527323 6.146274 2.849187 -6.898414 11.07757 87.54066 25.14343 -17.6262 -0 0 6.793218 -13.63158 10.74929 4.477032 4.881292 -18.01782 -4.052117 -82.14816 25.18252 1.865855 0 0 -16.31334 1.33541 15.01345 9.854374
16.36725 103.3688 366.6069 0.1263016 -10.05512 2.882055 5.727066 -11.85154 3.43001 -0 27.1472 -0 -5.206667 -9.772517 -11.03938 -1.284448 11.02781 -8.180071 -0 48.8208 -0 -7.198148 -10.42891 15.29288 -1.535726 1.90054 1.923133 1.699196 7.763209 -4.861572 5.232242 26.93752 0.2747615 0.7038711 -8.1418 5.57858 3.422067 -7.617564 11.77261 86.17879 25.23806 -15.48941 -0 0 7.999626 -13.88044 10.45295 4.951483 4.206287 -17.24262 -4.247057 -84.13714 25.65996 4.465446 0 0 -12.58684 0.4251543 15.37746 10.65541
16.03922 104.4819 372.6819 0.179669 -10.40278 2.276222 5.971032 -6.927335 3.321829 -0 26.02204 -0 -5.706086 -11.02682 -10.3337 -2.027136 6.514259 -7.317937 -0 56.41593 -0 -7.200137 -8.264802 17.54227 -1.677376 2.069503 2.94392 1.601144 7.651913 -4.259737 5.429919 27.14046 0.1497102 1.031902 -8.049512 5.445086 3.823015 -8.467754 12.33266 84.7048 25.27703 -13.10354 -0 0 9.298097 -14.40329 10.09405 5.62679 3.454564 -16.65547 -4.533733 -86.36127 25.9312 7.135291 0 0 -9.300797 -0.5398798 15.72524 11.33875
15.90183 105.8485 378.2799 0.6132793 -10.97371 1.087701 5.339074 -1.387099 3.681041 -0 23.52752 -0 -6.018668 -11.94751 -9.206192 -2.603957 -0.5718785 -7.336623 -0 59.12916 -0 -6.664059 -7.164345 19.10511 -2.058152 2.614745 4.071955 1.344242 7.81717 -3.360718 5.425446 27.45864 0.1713073 1.271539 -7.941942 5.301671 3.968357 -9.648525 12.9119 83.07497 25.24298 -10.38324 -0 0 10.89008 -15.27769 9.643755 6.566496 3.116681 -16.21999 -4.634284 -88.62678 25.90674 9.797602 0 0 -6.726078 -1.366405 16.04902 11.76289
15.74212 106.7936 383.3648 0.9548084 -10.56554 -0.379908 4.672974 3.255703 3.616781 -0 20.1408 -0 -6.168665 -12.76498 -8.026735 -3.118651 -7.205857 -7.598166 -0 56.12627 -0 -5.766397 -7.072434 20.09397 -2.425541 2.860767 5.034625 0.8937807 7.589972 -2.464761 5.211978 27.49337 0.3909708 1.416282 -8.027147 5.209447 3.649135 -11.0219 13.18843 81.63278 25.11864 -7.671167 -0 0 12.66586 -16.30904 9.164621 7.665203 3.296312 -15.78038 -4.443075 -90.75082 25.57521 12.48121 0 0 -4.810654 -1.940291 16.35011 11.87856
15.6284 107.1439 388.7359 1.030683 -9.833169 -1.521265 4.192282 7.384734 3.482079 -0 17.19903 -0 -6.250337 -13.5782 -6.812975 -2.642664 -13.00804 -7.80034 -0 48.44909 -0 -4.928406 -7.330266 21.27877 -2.505981 2.642252 5.579952 0.4169173 7.241245 -1.815227 4.782542 27.4043 0.8400427 1.455152 -8.257469 5.201666 3.087049 -12.60552 12.90776 80.52286 24.94817 -5.041464 -0 0 14.94947 -17.67644 8.730543 9.151308 3.731622 -15.15209 -3.871098 -92.65808 24.96097 15.26306 0 0 -3.34551 -2.158062 16.62803 11.70465
15.56967 106.5925 393.9584 0.7243894 -9.15174 -2.588819 4.051114 10.97814 3.172292 -0 15.19926 -0 -6.317267 -14.38903 -5.58885 -1.272013 -17.79192 -7.490008 -0 37.89587 -0 -4.369983 -7.228455 22.56015 -2.29053 2.218974 5.390385 0.23166 6.882382 -1.858036 3.981078 27.36392 1.658912 1.307641 -8.446771 5.307564 2.629265 -14.72765 11.89689 79.49084 24.74371 -2.454159 -0 0 17.44818 -19.19518 8.335359 10.9156 4.230088 -14.47444 -3.156069 -94.1895 24.14294 17.8078 0 0 -2.294122 -1.950151 16.86438 11.25708
